# xmcd
#
# Track frame offsets:
#	150
#	13402
#	27032
#	42310
#	54535
#	66950
#	80292
#	94285
#	107887
#	122820
#	134162
#	148230
#	162484
#	176985
#	191987
#	204422
#	217292
#	228377
#	241267
#	253387
#	264775
#	276950
#	291232
#
# Disc length: 4050 seconds
#
# Revision: 0
# Processed by: cddbd v1.5.2PL0 Copyright (c) Steve Scherf et al.
# Submitted via: audiograbber 1.83.01
#
DISCID=780fd017
DTITLE=Perry Como - Don't Let The Stars Get In Your Eyes
DYEAR=2003
DGENRE=Easy Listening
TTITLE0=Hoop Dee Doo
TTITLE1=On The Outgoing Tide
TTITLE2=On The Outgoing Tide
TTITLE3=Patricia
TTITLE4=A Bushel And A Peck
TTITLE5=You're Just In Love
TTITLE6=If
TTITLE7=Zing Zing, Zoom Zoom
TTITLE8=Hello Young Lovers
TTITLE9=There's No Boat Like A Rowboat
TTITLE10=Rollin' Stone
TTITLE11=With All My Heart And Soul
TTITLE12=Tulips And Heather
TTITLE13=Please Mr. Sun
TTITLE14=Noodlin' Rag
TTITLE15=Maybe
TTITLE16=Watermelon Weather
TTITLE17=My Love And Devotion
TTITLE18=To Know You Is To Love You
TTITLE19=Lies
TTITLE20=Don't Let The Stars Get In Your Eyes
TTITLE21=I Confess
TTITLE22=Wild Horses
EXTD=
EXTT0=
EXTT1=
EXTT2=
EXTT3=
EXTT4=
EXTT5=
EXTT6=
EXTT7=
EXTT8=
EXTT9=
EXTT10=
EXTT11=
EXTT12=
EXTT13=
EXTT14=
EXTT15=
EXTT16=
EXTT17=
EXTT18=
EXTT19=
EXTT20=
EXTT21=
EXTT22=
PLAYORDER=
